<svg xmlns="http://www.w3.org/2000/svg" viewBox="0 0 200 200" width="200" height="200"><defs><linearGradient id="g27" x1="0" y1="0" x2="1" y2="1"><stop offset="0" stop-color="#a78bfa"/><stop offset="1" stop-color="#ec4899"/></linearGradient></defs><rect width="200" height="200" fill="url(#g27)"/><circle cx="40" cy="40" r="7" fill="rgba(255,255,255,0.4)"/><circle cx="70" cy="40" r="7" fill="rgba(255,255,255,0.4)"/><circle cx="100" cy="40" r="7" fill="rgba(255,255,255,0.4)"/><circle cx="130" cy="40" r="7" fill="rgba(255,255,255,0.4)"/><circle cx="160" cy="40" r="7" fill="rgba(255,255,255,0.4)"/><circle cx="40" cy="70" r="7" fill="rgba(255,255,255,0.4)"/><circle cx="70" cy="70" r="7" fill="rgba(255,255,255,0.4)"/><circle cx="100" cy="70" r="7" fill="rgba(255,255,255,0.4)"/><circle cx="130" cy="70" r="7" fill="rgba(255,255,255,0.4)"/><circle cx="160" cy="70" r="7" fill="rgba(255,255,255,0.4)"/><circle cx="40" cy="100" r="7" fill="rgba(255,255,255,0.4)"/><circle cx="70" cy="100" r="7" fill="rgba(255,255,255,0.4)"/><circle cx="100" cy="100" r="7" fill="rgba(255,255,255,0.4)"/><circle cx="130" cy="100" r="7" fill="rgba(255,255,255,0.4)"/><circle cx="160" cy="100" r="7" fill="rgba(255,255,255,0.4)"/><circle cx="40" cy="130" r="7" fill="rgba(255,255,255,0.4)"/><circle cx="70" cy="130" r="7" fill="rgba(255,255,255,0.4)"/><circle cx="100" cy="130" r="7" fill="rgba(255,255,255,0.4)"/><circle cx="130" cy="130" r="7" fill="rgba(255,255,255,0.4)"/><circle cx="160" cy="130" r="7" fill="rgba(255,255,255,0.4)"/><circle cx="40" cy="160" r="7" fill="rgba(255,255,255,0.4)"/><circle cx="70" cy="160" r="7" fill="rgba(255,255,255,0.4)"/><circle cx="100" cy="160" r="7" fill="rgba(255,255,255,0.4)"/><circle cx="130" cy="160" r="7" fill="rgba(255,255,255,0.4)"/><circle cx="160" cy="160" r="7" fill="rgba(255,255,255,0.4)"/></svg>