<svg xmlns="http://www.w3.org/2000/svg" viewBox="0 0 200 200" width="200" height="200"><defs><linearGradient id="g32" x1="0" y1="0" x2="1" y2="1"><stop offset="0" stop-color="#e11d48"/><stop offset="1" stop-color="#9333ea"/></linearGradient></defs><rect width="200" height="200" fill="url(#g32)"/><rect x="-40" y="-20" width="16" height="300" fill="rgba(255,255,255,0.4)" transform="rotate(30 100 100)"/><rect x="-6" y="-20" width="16" height="300" fill="rgba(255,255,255,0.4)" transform="rotate(30 100 100)"/><rect x="28" y="-20" width="16" height="300" fill="rgba(255,255,255,0.4)" transform="rotate(30 100 100)"/><rect x="62" y="-20" width="16" height="300" fill="rgba(255,255,255,0.4)" transform="rotate(30 100 100)"/><rect x="96" y="-20" width="16" height="300" fill="rgba(255,255,255,0.4)" transform="rotate(30 100 100)"/><rect x="130" y="-20" width="16" height="300" fill="rgba(255,255,255,0.4)" transform="rotate(30 100 100)"/><rect x="164" y="-20" width="16" height="300" fill="rgba(255,255,255,0.4)" transform="rotate(30 100 100)"/><rect x="198" y="-20" width="16" height="300" fill="rgba(255,255,255,0.4)" transform="rotate(30 100 100)"/><rect x="232" y="-20" width="16" height="300" fill="rgba(255,255,255,0.4)" transform="rotate(30 100 100)"/></svg>